<?xml version="1.0" encoding="UTF-8"?>
<svg width="196px" height="190px" viewBox="0 0 196 190" version="1.1" xmlns="http://www.w3.org/2000/svg" xmlns:xlink="http://www.w3.org/1999/xlink">
    <!-- Generator: Sketch 61.2 (89653) - https://sketch.com -->
    <title>Group 3</title>
    <desc>Created with Sketch.</desc>
    <g id="Page-1" stroke="none" stroke-width="1" fill="none" fill-rule="evenodd">
        <g id="Artboard" transform="translate(-1.000000, -6.000000)" fill="#0071C5">
            <g id="Group-3" transform="translate(0.000000, 6.000000)">
                <path d="M66.3608,19.6416 C60.0508,19.6416 53.7398,19.5866 47.4298,19.6576 C41.3548,19.7246 36.8268,23.3566 36.8998,27.9546 C36.9698,32.4416 41.2038,36.0816 47.1048,36.1496 C60.0548,36.2976 73.0098,36.2896 85.9618,36.1616 C91.9898,36.1016 96.4328,32.1466 96.2208,27.5206 C96.0168,23.0806 91.6638,19.7286 85.7898,19.6596 C79.3148,19.5836 72.8378,19.6426 66.3608,19.6416 M66.4288,170.4086 C72.9058,170.4086 79.3848,170.4626 85.8618,170.3916 C91.7798,170.3276 96.0628,167.0016 96.2218,162.5116 C96.3738,158.2176 92.5118,154.1286 86.8818,154.0016 C73.2718,153.6956 59.6438,153.6856 46.0358,154.0376 C40.4418,154.1816 36.5868,158.4786 36.9058,162.7316 C37.2308,167.0596 41.4088,170.3146 46.9958,170.3876 C53.4718,170.4716 59.9508,170.4076 66.4288,170.4086 M54.4958,120.5856 C43.8378,120.5856 33.1798,120.5646 22.5218,120.5946 C16.1528,120.6136 12.6438,123.4426 12.5598,128.5126 C12.4758,133.5486 16.0478,136.9916 22.1708,137.0256 C43.6528,137.1466 65.1348,137.1416 86.6168,137.0256 C92.4098,136.9946 96.4178,133.0996 96.2218,128.3596 C96.0278,123.6596 92.2938,120.6256 86.4688,120.6016 C75.8118,120.5576 65.1538,120.5886 54.4958,120.5856 M54.1418,69.8436 L54.1418,69.8066 C64.8028,69.8066 75.4658,69.9256 86.1248,69.7606 C92.3298,69.6636 96.0998,66.4026 96.2248,61.6286 C96.3528,56.7296 92.3218,53.3436 85.9868,53.0326 C85.4878,53.0076 84.9878,53.0096 84.4878,53.0096 C64.3318,53.0076 44.1748,52.9876 24.0188,53.0376 C22.0448,53.0426 19.9548,53.1626 18.1208,53.8056 C14.2498,55.1606 12.2168,58.0416 12.6228,62.2626 C13.0048,66.2406 15.3588,68.6286 19.1938,69.3646 C21.3008,69.7686 23.4988,69.8146 25.6568,69.8246 C35.1518,69.8706 44.6468,69.8436 54.1418,69.8436 M48.7458,103.3296 C61.2318,103.3296 73.7168,103.3666 86.2008,103.3136 C92.2028,103.2876 96.1518,100.0056 96.2358,95.1836 C96.3178,90.3956 92.2848,86.7576 86.4658,86.7456 C61.3298,86.6866 36.1928,86.6926 11.0568,86.7396 C5.1938,86.7496 1.0808,90.2226 0.9958,94.9236 C0.9058,99.8636 5.0418,103.2976 11.2908,103.3186 C23.7768,103.3596 36.2608,103.3296 48.7458,103.3296 M124.7248,10.9196 C126.6618,4.0376 124.4608,1.5576 119.0158,1.4016 C116.2028,1.3206 113.3868,0.8706 110.6028,0.3996 C106.9198,-0.2234 105.2638,1.1286 104.3908,4.8816 C101.4528,17.5186 101.6108,30.3136 101.7018,43.1346 C101.7658,52.1286 101.7148,52.1286 110.7238,53.3556 C111.2178,53.4216 111.7148,53.4836 112.2008,53.5866 C132.0078,57.7936 144.9738,76.5696 143.6518,99.1226 C142.4908,118.9196 126.5898,135.2706 106.8108,136.7266 C103.0528,137.0026 101.7948,138.2366 101.6038,142.1236 C100.9488,155.4766 102.5198,168.4906 105.7848,181.4246 C107.8688,189.6816 107.7008,189.8686 116.4878,188.4886 C128.9128,186.5376 128.9128,186.5376 126.8088,173.9786 C125.3318,165.1566 125.3318,165.1596 133.5898,161.3636 C134.6488,160.8766 135.8268,160.5206 136.7108,159.8076 C141.2658,156.1326 144.3538,157.2446 148.1838,161.6166 C158.9208,173.8726 159.3288,173.6176 170.3888,161.6926 C172.6148,159.2926 172.9988,157.3096 170.7968,154.7876 C168.1678,151.7776 165.9258,148.3956 163.0838,145.6156 C160.0538,142.6516 160.1798,140.3016 162.7848,137.1336 C165.7928,133.4786 167.5388,127.3726 171.1858,126.0446 C174.9518,124.6726 180.3908,127.5996 185.0118,128.9426 C189.5978,130.2746 192.0898,128.9806 193.4198,124.2216 C198.0278,107.7396 198.2738,110.9306 184.2618,106.1166 C176.4088,103.4176 176.3518,103.5826 176.3798,95.4496 C176.4178,84.1226 176.4178,84.1226 187.2438,80.3816 C197.0138,77.0056 197.0138,77.0056 193.9238,66.9636 C190.8548,56.9886 190.8538,56.9866 180.8768,59.6646 C179.9128,59.9236 178.9648,60.2366 178.0018,60.5016 C169.5818,62.8216 169.6018,62.8066 165.0158,55.5496 C163.8608,53.7226 162.6818,51.8706 161.2458,50.2706 C159.0938,47.8726 158.9468,45.8746 161.2168,43.3556 C164.1108,40.1456 166.5468,36.5296 169.3218,33.2056 C171.4278,30.6866 171.4918,28.5316 168.8688,26.3856 C165.9038,23.9606 162.9708,21.4976 160.0748,18.9936 C157.3438,16.6286 155.0798,17.1016 152.8298,19.7656 C150.1438,22.9466 147.0958,25.8316 144.5428,29.1106 C142.4878,31.7486 140.6458,31.9406 137.7738,30.3686 C133.5688,28.0656 127.2818,27.3606 125.2188,23.9536 C123.0258,20.3346 124.7248,14.3576 124.7248,10.9196" id="Fill-1"></path>
            </g>
        </g>
    </g>
</svg>